<?xml version="1.0" standalone="no"?>
<!DOCTYPE svg PUBLIC "-//W3C//DTD SVG 20010904//EN"
 "http://www.w3.org/TR/2001/REC-SVG-20010904/DTD/svg10.dtd">
<svg version="1.0" xmlns="http://www.w3.org/2000/svg"
 width="860.000000pt" height="860.000000pt" viewBox="0 0 860.000000 860.000000"
 preserveAspectRatio="xMidYMid meet">
<metadata>
Created by potrace 1.14, written by Peter Selinger 2001-2017
</metadata>
<g transform="translate(0.000000,860.000000) scale(0.100000,-0.100000)"
fill="#000000" stroke="none">
<path d="M5700 7698 c-26 -12 -64 -21 -90 -20 -87 1 -860 11 -1330 17 -261 3
-480 2 -485 -2 -6 -5 -44 -48 -85 -98 -41 -49 -80 -94 -87 -98 -7 -4 -13 -12
-13 -17 0 -4 -17 -26 -38 -47 -20 -22 -48 -54 -62 -72 -14 -17 -40 -48 -58
-69 -18 -20 -48 -54 -65 -75 -18 -21 -41 -49 -52 -62 -11 -12 -40 -47 -65 -76
-25 -30 -59 -67 -75 -84 -17 -16 -30 -33 -30 -37 0 -4 -18 -26 -39 -48 -31
-33 -36 -44 -25 -51 12 -7 12 -12 0 -31 -26 -40 -61 -113 -61 -125 0 -6 -4
-13 -8 -15 -5 -1 -30 -46 -57 -98 -47 -94 -122 -240 -278 -540 -44 -85 -116
-225 -160 -310 -43 -85 -126 -245 -183 -355 -57 -110 -136 -265 -176 -345 -40
-80 -75 -147 -78 -150 -10 -10 -50 -95 -49 -104 0 -5 -3 -12 -8 -15 -5 -3 -21
-28 -35 -56 -14 -27 -62 -122 -108 -210 -45 -88 -93 -182 -107 -210 -14 -27
-29 -57 -34 -65 -4 -8 -30 -58 -56 -110 -26 -52 -50 -97 -53 -100 -7 -7 -101
-194 -100 -201 0 -6 705 -4 4471 13 130 1 241 -2 247 -6 7 -4 12 -3 12 2 0 6
9 8 21 5 24 -7 39 11 39 47 0 26 74 140 91 140 5 0 9 7 9 15 0 8 5 15 12 15 6
0 9 3 5 6 -3 4 -1 12 6 19 24 24 53 61 92 115 21 30 42 57 45 60 3 3 19 23 36
45 16 22 37 49 46 60 9 11 50 65 92 120 41 55 79 105 84 110 8 10 126 165 166
219 11 15 31 40 44 53 33 38 59 -30 -205 523 -30 63 -78 162 -105 220 -28 58
-71 148 -97 200 -25 52 -46 97 -47 100 0 3 -28 62 -62 133 -34 70 -62 132 -62
137 0 6 -4 10 -10 10 -5 0 -10 6 -10 13 0 8 -18 49 -39 93 -22 43 -65 133 -96
199 -67 141 -134 282 -217 455 -33 69 -82 170 -108 225 -26 55 -76 159 -111
230 -34 72 -63 132 -64 135 -1 3 -13 30 -27 60 -18 38 -24 60 -17 71 7 14 4
17 -16 15 -13 -2 -22 1 -19 5 3 5 1 15 -3 23 -7 13 -15 12 -53 -6z m-1149
-2653 c6 -22 19 -65 29 -95 16 -47 38 -122 46 -155 8 -35 88 -294 95 -310 5
-11 13 -38 18 -60 5 -22 22 -78 36 -125 15 -47 30 -98 35 -115 5 -16 20 -70
35 -120 15 -49 28 -94 28 -99 2 -9 -123 -11 -988 -16 -308 -2 -287 -3 -281 18
4 15 10 49 21 117 2 11 13 72 24 135 12 63 23 124 25 135 10 58 17 92 20 112
3 13 28 150 56 305 28 156 53 290 55 298 4 13 54 15 370 15 l366 0 10 -40z"/>
<path d="M7079 4777 c-24 -34 -49 -69 -56 -77 -7 -8 -51 -67 -97 -130 -47 -63
-89 -120 -93 -125 -50 -62 -133 -177 -133 -184 0 -5 -4 -11 -8 -13 -5 -1 -26
-28 -48 -58 -21 -30 -47 -64 -56 -74 -10 -11 -18 -24 -18 -28 0 -5 -11 -19
-25 -32 -14 -13 -25 -28 -25 -35 0 -6 -4 -11 -10 -11 -5 0 -10 -4 -10 -10 0
-5 -8 -19 -17 -31 -31 -37 -47 -57 -102 -131 l-54 -73 -519 0 c-286 0 -522 -3
-525 -8 -2 -4 -8 -5 -12 -3 -4 3 -23 5 -42 6 -47 1 -232 2 -244 2 -16 -1
-2042 -13 -2777 -16 -681 -3 -708 -5 -708 -37 0 -4 -26 -57 -59 -116 -32 -59
-74 -137 -93 -173 -20 -36 -49 -90 -66 -120 -97 -178 -142 -264 -142 -271 0
-5 -5 -9 -12 -9 -6 0 -8 -3 -5 -7 4 -3 3 -11 -2 -17 -5 -6 -25 -42 -46 -81
-106 -197 -138 -257 -186 -342 -10 -18 -15 -33 -11 -33 4 0 2 -4 -4 -8 -12 -8
-129 -225 -125 -231 1 -2 -2 -7 -7 -10 -5 -3 -22 -31 -37 -61 -15 -30 -34 -63
-43 -72 -8 -10 -13 -18 -10 -18 4 0 -21 -48 -54 -107 -33 -59 -60 -112 -61
-118 -1 -5 -5 -12 -8 -15 -3 -3 -30 -50 -59 -105 -29 -55 -63 -117 -76 -137
-13 -20 -26 -48 -30 -62 -3 -14 -9 -26 -13 -26 -4 0 -18 -24 -32 -52 -13 -29
-30 -59 -36 -66 -7 -7 -13 -17 -13 -21 0 -5 -33 -68 -73 -142 -40 -74 -95
-174 -122 -224 -26 -49 -55 -100 -63 -112 -8 -13 -13 -23 -11 -24 2 -1 387 -2
854 -2 468 -1 855 -5 862 -10 6 -4 14 -3 18 3 4 6 11 8 16 5 5 -4 9 -2 9 3 0
5 45 41 101 78 56 38 106 74 112 79 7 6 32 23 57 40 25 16 74 51 110 76 l65
47 0 371 c0 205 2 375 5 379 3 4 217 7 476 8 l471 1 0 -532 c0 -293 3 -536 6
-541 3 -5 332 -9 779 -8 626 1 777 -1 795 -12 18 -11 23 -11 33 1 7 8 16 12
21 9 5 -3 9 2 9 10 0 9 3 16 8 16 4 0 32 23 62 51 30 27 72 64 93 82 22 18 56
48 77 67 52 48 131 116 154 133 22 16 22 7 15 477 l-4 235 275 1 c151 1 280 3
285 4 6 1 12 1 15 0 15 -6 69 -5 98 1 17 4 32 3 32 -1 0 -4 16 -6 35 -3 23 2
35 -1 36 -9 0 -7 2 -22 4 -33 3 -11 6 -57 7 -102 2 -46 5 -83 8 -83 3 0 6 -28
6 -63 1 -60 8 -179 19 -322 3 -38 8 -99 10 -135 11 -181 17 -267 20 -285 1
-11 3 -24 4 -30 1 -7 301 -10 880 -9 839 0 880 -1 884 -18 3 -10 9 -18 14 -18
9 0 113 158 367 558 27 42 67 103 88 135 21 32 38 63 38 68 0 5 5 9 10 9 6 0
10 4 10 10 0 8 27 52 93 149 9 14 20 34 23 43 4 10 10 18 15 18 5 0 9 4 9 9 0
5 22 43 50 85 27 41 51 79 52 84 4 12 -25 82 -34 82 -4 0 -8 9 -8 20 0 11 -3
20 -8 20 -4 0 -18 25 -31 55 -13 30 -28 55 -32 55 -5 0 -9 8 -10 18 0 9 -9 31
-19 47 -16 26 -59 106 -142 265 -12 25 -25 47 -28 50 -3 3 -23 41 -46 85 -41
81 -127 244 -192 365 -19 36 -53 101 -75 145 -22 44 -49 92 -59 107 -10 14
-18 33 -18 42 0 9 -4 16 -9 16 -5 0 -14 15 -22 33 -7 17 -15 34 -18 37 -3 3
-21 37 -40 75 -19 39 -39 73 -45 77 -6 4 -8 8 -4 8 6 0 -14 41 -53 110 -8 14
-18 28 -24 32 -5 4 -6 8 -1 8 5 0 4 6 -1 13 -6 6 -32 55 -59 107 -27 52 -51
97 -54 100 -3 3 -23 41 -45 84 -74 147 -110 213 -124 230 -7 9 -10 16 -6 16 4
0 3 6 -2 13 -6 6 -33 56 -62 110 -28 53 -74 141 -103 195 -28 53 -58 109 -65
124 -8 15 -18 30 -22 33 -5 2 -28 -23 -52 -58z m-2109 -1189 c7 -24 15 -52 17
-63 2 -10 9 -23 16 -27 9 -6 9 -8 -1 -8 -8 0 -10 -5 -5 -12 4 -7 8 -15 8 -18
2 -8 27 -94 33 -110 3 -8 6 -20 8 -27 1 -6 7 -28 14 -47 6 -20 9 -39 7 -44 -3
-4 -356 -7 -784 -7 l-778 0 1 40 c1 36 6 75 19 160 3 17 7 48 10 70 3 22 7 49
9 60 3 11 5 31 5 45 l1 25 703 3 704 3 13 -43z"/>
</g>
</svg>
