<?xml version="1.0" encoding="UTF-8"?><svg id="Layer_2" xmlns="http://www.w3.org/2000/svg" viewBox="0 0 215.09 171.04"><defs><style>.cls-1{fill:#fff;}.cls-2{fill:#231f20;}</style></defs><g id="Layer_2-2"><g id="Layer_1-2"><g><polygon class="cls-2" points="178.31 71.9 215.09 141.35 198.06 168 197.14 166.39 213.25 141.26 178.13 74.89 160.18 99.01 160.08 98.82 158.33 98.82 178.31 71.9"/><polygon class="cls-2" points="178.13 74.89 213.25 141.26 197.14 166.39 196.31 164.78 211.4 141.17 177.9 77.88 161.05 100.57 160.18 99.01 178.13 74.89"/><polygon class="cls-1" points="177.9 77.88 211.4 141.17 196.31 164.78 161.05 100.57 177.9 77.88"/><polygon class="cls-2" points="198.06 168 198.15 168.19 197.41 168.93 198.06 168"/><polygon class="cls-2" points="197.14 166.39 198.06 168 197.41 168.93 196.49 169.89 195.43 169.89 194.56 168.28 195.8 168.28 196.17 167.91 197.14 166.39"/><polygon class="cls-2" points="197.41 168.93 196.08 171.04 195.43 169.89 196.49 169.89 197.41 168.93"/><polygon class="cls-2" points="196.31 164.78 197.14 166.39 196.17 167.91 159.12 100.43 160.18 99.01 161.05 100.57 196.31 164.78"/><polygon class="cls-2" points="159.12 100.43 196.17 167.91 195.8 168.28 194.56 168.28 193.68 166.72 158.2 102.05 158.15 102.05 157.28 100.43 159.12 100.43"/><polygon class="cls-2" points="194.56 168.28 195.43 169.89 151.48 169.89 149.63 143.06 130.16 143.1 130.12 141.63 128.51 141.68 130.12 141.49 151.15 141.45 152.95 168.28 194.56 168.28"/><polygon class="cls-2" points="193.68 166.72 194.56 168.28 152.95 168.28 151.15 141.45 130.12 141.49 130.12 139.93 152.63 139.88 154.42 166.72 193.68 166.72"/><polygon class="cls-1" points="158.2 102.05 193.68 166.72 154.42 166.72 152.63 139.88 130.12 139.93 130.12 139.88 117.51 139.93 115.85 139.93 116.82 166.72 82.16 166.72 82.16 139.65 55.14 139.79 40.69 139.84 40.87 166.72 5.34 166.72 39.95 102.64 73.92 102.46 69.91 115.62 131.18 115.62 127.31 102.23 158.15 102.05 158.2 102.05"/><polygon class="cls-2" points="144.57 1.84 177.44 70.65 158.7 95.14 158.84 94.36 158.33 93.12 175.59 70.47 143.42 3.13 144.57 1.84"/><polygon class="cls-2" points="143.42 3.13 175.59 70.47 158.33 93.12 157.6 91.41 173.71 70.29 142.27 4.37 143.42 3.13"/><polygon class="cls-1" points="142.27 4.37 173.71 70.29 157.6 91.41 127.73 20.25 127.73 20.21 142.27 4.37"/><polygon class="cls-2" points="160.08 98.82 160.18 99.01 159.12 100.43 157.28 100.43 157.23 100.34 158.33 98.82 160.08 98.82"/><polygon class="cls-2" points="158.33 93.12 158.84 94.36 158.7 95.14 157.18 97.17 156.54 97.17 155.89 95.6 157.05 95.6 157.18 94.59 158.33 93.12"/><polygon class="cls-2" points="157.18 97.17 158.7 95.14 158.43 97.17 157.18 97.17"/><polygon class="cls-2" points="158.33 98.82 157.23 100.34 157.28 100.43 126.85 100.62 126.39 99.05 158.33 98.82"/><polygon class="cls-2" points="158.33 93.12 157.18 94.59 126.53 21.5 126.57 21.5 127.73 20.25 157.6 91.41 158.33 93.12"/><polygon class="cls-2" points="157.28 100.43 158.15 102.05 127.31 102.23 126.85 100.62 157.28 100.43"/><polygon class="cls-2" points="126.53 21.5 157.18 94.59 157.05 95.6 155.89 95.6 155.2 93.99 124.83 21.5 126.53 21.5"/><polygon class="cls-2" points="157.18 97.17 156.77 97.72 156.54 97.17 157.18 97.17"/><polygon class="cls-2" points="155.89 95.6 156.54 97.17 124.18 97.35 124.18 95.74 155.89 95.6"/><polygon class="cls-2" points="155.2 93.99 155.89 95.6 124.18 95.74 124.14 95.65 124.14 94.13 123.67 94.13 114.75 64.35 88.14 64.35 77.37 94.36 76.82 94.36 76.82 95.92 41.24 96.06 79.76 21.5 81.56 21.5 43.86 94.45 75.71 94.36 87.04 62.74 115.94 62.74 125.33 94.13 155.2 93.99"/><polygon class="cls-1" points="124.78 21.5 155.2 93.99 125.33 94.13 115.94 62.74 87.04 62.74 75.71 94.36 43.86 94.45 81.56 21.5 124.78 21.5"/><polygon class="cls-2" points="145.26 1.11 144.57 1.84 144.2 1.11 145.26 1.11"/><polygon class="cls-2" points="144.2 1.11 144.57 1.84 143.42 3.13 142.91 2.07 141.67 2.67 139.65 2.62 140.98 1.2 141.3 1.06 144.2 1.11"/><polygon class="cls-2" points="143.7 0 144.2 1.11 141.3 1.06 143.7 0"/><polygon class="cls-2" points="142.91 2.07 143.42 3.13 142.27 4.37 127.73 20.21 127.03 18.6 141.67 2.67 142.91 2.07"/><polygon class="cls-2" points="141.67 2.67 127.03 18.6 126.9 18.27 125.19 18.27 139.65 2.62 141.67 2.67"/><polygon class="cls-2" points="141.3 1.06 140.98 1.2 139.65 2.62 95.78 2.07 81.97 18.27 79.86 18.27 95.05 .46 141.3 1.06"/><polygon class="cls-2" points="139.65 2.62 125.19 18.27 125.15 18.27 138.08 4.19 96.52 3.68 84.04 18.27 81.97 18.27 95.78 2.07 139.65 2.62"/><path class="cls-1" d="M138.08,4.19l-12.93,14.08h-41.1l12.47-14.59,41.56,.51h0Zm-16.48,8.75l3.54-4.23h-23.47l-4.23,3.96,24.16,.28h0Z"/><polygon class="cls-2" points="127.31 102.23 131.18 115.62 69.91 115.62 73.92 102.46 74.42 100.85 76.04 100.85 72.08 114.01 85.61 114.01 87.17 114.24 87.22 114.01 129.01 114.01 125.15 100.62 126.85 100.62 127.31 102.23"/><polygon class="cls-2" points="130.16 143.1 130.44 160.41 120.13 169.48 120.04 167.45 128.83 159.72 128.55 143.1 130.16 143.1"/><polygon class="cls-2" points="130.12 141.63 130.16 143.1 128.55 143.1 128.51 141.68 130.12 141.63"/><polygon class="cls-2" points="130.12 139.93 130.12 141.49 128.51 141.49 117.51 141.54 118.47 168.28 116.86 168.28 116.82 166.72 115.85 139.93 117.51 139.93 130.12 139.93"/><polygon class="cls-2" points="130.12 139.88 130.12 139.93 117.51 139.93 130.12 139.88"/><polygon class="cls-2" points="130.12 141.49 128.51 141.68 128.51 141.49 130.12 141.49"/><polygon class="cls-2" points="125.15 100.62 129.01 114.01 87.22 114.01 87.45 112.4 126.9 112.4 124.6 102.23 123.95 102.23 123.49 100.62 125.15 100.62"/><polygon class="cls-2" points="128.55 143.1 128.83 159.72 120.04 167.45 119.16 143.1 119.99 165.38 127.22 158.98 126.94 143.1 128.55 143.1"/><polygon class="cls-2" points="128.51 141.68 128.55 143.1 126.94 143.1 119.16 143.1 120.04 167.45 118.84 168.51 118.47 168.28 117.51 141.54 128.51 141.49 128.51 141.68"/><polygon class="cls-2" points="127.73 20.21 127.73 20.25 126.57 21.5 126.53 21.5 125.84 19.89 127.03 18.6 127.73 20.21"/><polygon class="cls-2" points="126.94 143.1 127.22 158.98 119.99 165.38 119.16 143.1 126.94 143.1"/><polygon class="cls-2" points="126.9 18.27 127.03 18.6 125.84 19.89 124.14 19.89 124 19.56 125.15 18.27 125.19 18.27 126.9 18.27"/><polygon class="cls-2" points="124.6 102.23 126.9 112.4 123.95 102.23 124.6 102.23"/><polygon class="cls-2" points="126.39 99.05 126.85 100.62 125.15 100.62 123.49 100.62 123.03 99.05 126.39 99.05"/><polygon class="cls-2" points="126.53 21.5 124.83 21.5 124.78 21.5 124.14 19.89 125.84 19.89 126.53 21.5"/><polygon class="cls-2" points="126.39 99.01 126.39 99.05 123.03 99.05 123.49 100.62 89.15 100.8 89.15 100.67 85.98 100.2 85.89 100.8 77.74 100.85 78.2 99.28 126.39 99.01"/><polygon class="cls-2" points="125.15 18.27 124 19.56 124.14 19.89 80.59 19.89 81.97 18.27 84.04 18.27 125.15 18.27"/><polygon class="cls-1" points="125.15 8.7 121.6 12.93 97.44 12.66 101.67 8.7 125.15 8.7"/><polygon class="cls-2" points="124.14 19.89 124.78 21.5 81.56 21.5 79.76 21.5 80.59 19.89 124.14 19.89"/><polygon class="cls-2" points="124.18 95.74 124.18 97.35 122.98 97.35 122.52 95.74 124.18 95.74"/><polygon class="cls-2" points="124.18 95.74 122.52 95.74 122.02 94.13 123.67 94.13 124.14 95.65 124.18 95.74"/><polygon class="cls-2" points="124.14 95.65 123.67 94.13 124.14 94.13 124.14 95.65"/><polygon class="cls-2" points="123.49 100.62 123.95 102.23 88.88 102.46 89.15 100.8 123.49 100.62"/><polygon class="cls-2" points="114.75 64.35 123.67 94.13 122.02 94.13 113.55 65.96 95.18 65.96 95.28 65.41 93.71 65.09 92.15 64.81 91.92 65.96 89.29 65.96 79.12 94.36 77.37 94.36 88.14 64.35 114.75 64.35"/><polygon class="cls-2" points="122.52 95.74 122.98 97.35 77.97 97.54 78.52 95.92 78.57 95.92 88.97 95.88 89.75 96.02 89.8 95.88 122.52 95.74"/><polygon class="cls-2" points="122.52 95.74 89.8 95.88 90.07 94.31 122.02 94.13 122.52 95.74"/><polygon class="cls-2" points="120.13 169.48 120.13 169.89 119.67 169.89 120.13 169.48"/><polygon class="cls-2" points="120.04 167.45 120.13 169.48 119.67 169.89 118.01 169.89 116.91 169.2 116.86 168.28 118.47 168.28 118.84 168.51 120.04 167.45"/><polygon class="cls-2" points="119.67 169.89 118.98 170.49 118.01 169.89 119.67 169.89"/><polygon class="cls-2" points="118.01 169.89 78.98 169.89 78.98 142.87 55.14 142.97 55.14 141.4 80.59 141.26 80.59 168.28 116.86 168.28 116.91 169.2 118.01 169.89"/><polygon class="cls-2" points="116.82 166.72 116.86 168.28 80.59 168.28 80.59 141.26 55.14 141.4 55.14 139.79 82.16 139.65 82.16 166.72 116.82 166.72"/><polygon class="cls-2" points="95.28 65.41 95.18 65.96 93.57 65.96 93.71 65.09 95.28 65.41"/><polygon class="cls-2" points="95.18 65.96 90.07 94.31 88.42 94.31 93.57 65.96 95.18 65.96"/><polygon class="cls-2" points="93.71 65.09 93.57 65.96 91.92 65.96 92.15 64.81 93.71 65.09"/><polygon class="cls-2" points="93.57 65.96 88.42 94.31 86.81 94.31 91.92 65.96 93.57 65.96"/><polygon class="cls-2" points="91.92 65.96 86.81 94.31 79.12 94.36 89.29 65.96 91.92 65.96"/><polygon class="cls-2" points="90.07 94.31 89.8 95.88 88.97 95.88 88.14 95.74 88.42 94.31 90.07 94.31"/><polygon class="cls-2" points="89.8 95.88 89.75 96.02 88.97 95.88 89.8 95.88"/><polygon class="cls-2" points="89.15 100.67 89.15 100.8 85.89 100.8 85.98 100.2 89.15 100.67"/><polygon class="cls-2" points="89.15 100.8 88.88 102.46 87.96 102.46 85.56 112.4 84.18 112.4 85.89 100.8 89.15 100.8"/><polygon class="cls-2" points="88.97 95.88 78.57 95.92 79.12 94.36 86.81 94.31 86.58 95.46 88.14 95.74 88.97 95.88"/><polygon class="cls-2" points="88.88 102.46 87.45 112.4 85.56 112.4 87.96 102.46 88.88 102.46"/><polygon class="cls-2" points="88.42 94.31 88.14 95.74 86.58 95.46 86.81 94.31 88.42 94.31"/><polygon class="cls-2" points="87.45 112.4 87.22 114.01 85.61 114.01 84 113.78 84.18 112.4 85.56 112.4 87.45 112.4"/><polygon class="cls-2" points="87.22 114.01 87.17 114.24 85.61 114.01 87.22 114.01"/><polygon class="cls-2" points="85.89 100.8 84.18 112.4 74.24 112.4 77.74 100.85 85.89 100.8"/><polygon class="cls-2" points="85.61 114.01 72.08 114.01 76.04 100.85 77.74 100.85 74.24 112.4 84.18 112.4 84 113.78 85.61 114.01"/><polygon class="cls-2" points="81.97 18.27 80.59 19.89 79.76 21.5 77.92 21.5 79.12 19.15 79.17 19.06 79.86 18.27 81.97 18.27"/><polygon class="cls-2" points="79.86 18.27 79.17 19.06 79.58 18.27 79.86 18.27"/><polygon class="cls-2" points="79.76 21.5 41.24 96.06 76.82 95.92 76.82 97.54 38.61 97.67 77.92 21.5 79.76 21.5"/><polygon class="cls-2" points="79.12 19.15 77.92 21.5 77.09 21.5 79.12 19.15"/><polygon class="cls-2" points="79.12 94.36 78.57 95.92 78.52 95.92 76.82 95.92 77.37 94.36 79.12 94.36"/><polygon class="cls-2" points="78.52 95.92 77.97 97.54 76.82 97.54 76.82 95.92 78.52 95.92"/><polygon class="cls-2" points="78.2 99.24 78.2 99.28 74.88 99.28 74.42 100.85 39.03 101.08 2.67 168.28 40.87 168.28 40.87 169.43 42.2 169.89 0 169.89 38.06 99.47 78.2 99.24"/><polygon class="cls-2" points="78.2 99.28 77.74 100.85 76.04 100.85 74.42 100.85 74.88 99.28 78.2 99.28"/><polygon class="cls-2" points="77.37 94.36 76.82 95.92 76.82 94.36 77.37 94.36"/><polygon class="cls-2" points="74.42 100.85 73.92 102.46 39.95 102.64 5.34 166.72 40.87 166.72 40.87 168.28 2.67 168.28 39.03 101.08 74.42 100.85"/><polygon class="cls-2" points="55.14 142.97 55.14 161.88 44.09 169.57 44.09 167.68 53.53 161.05 53.53 142.97 55.14 142.97"/><rect class="cls-2" x="53.53" y="141.4" width="1.61" height="1.56"/><polygon class="cls-2" points="55.14 139.79 55.14 141.4 53.53 141.4 42.3 141.4 42.48 168.28 40.87 168.28 40.87 166.72 40.69 139.84 55.14 139.79"/><polygon class="cls-2" points="53.53 142.97 53.53 161.05 44.09 167.68 44.05 165.7 51.96 160.23 51.96 142.97 53.53 142.97"/><polygon class="cls-2" points="53.53 141.4 53.53 142.97 51.96 142.97 43.91 143.01 44.05 165.7 44.09 167.68 42.94 168.46 42.48 168.28 42.3 141.4 53.53 141.4"/><polygon class="cls-2" points="51.96 142.97 51.96 160.23 44.05 165.7 43.91 143.01 51.96 142.97"/><polygon class="cls-2" points="44.09 169.57 44.09 169.89 43.63 169.89 44.09 169.57"/><polygon class="cls-2" points="44.09 167.68 44.09 169.57 43.63 169.89 42.2 169.89 40.87 169.43 40.87 168.28 42.48 168.28 42.94 168.46 44.09 167.68"/><polygon class="cls-2" points="43.63 169.89 43.17 170.21 42.2 169.89 43.63 169.89"/></g></g></g></svg>