<?xml version="1.0" encoding="utf-8"?>
<!-- Generator: Adobe Illustrator 27.0.0, SVG Export Plug-In . SVG Version: 6.00 Build 0)  -->
<svg version="1.1" id="Layer_2_00000167384000060769723650000011897328446738587272_"
	 xmlns="http://www.w3.org/2000/svg" xmlns:xlink="http://www.w3.org/1999/xlink" x="0px" y="0px" viewBox="0 0 319.5 339"
	 style="enable-background:new 0 0 319.5 339;" xml:space="preserve">
<style type="text/css">
	.st0{fill:#231F20;}
	.st1{fill:#EDDD71;}
</style>
<g id="Layer_1-2">
	<g>
		<path class="st0" d="M319.2,336.8v1.7h-12v-1.7c0.4,0,0.6-0.1,0.6-0.5c0-0.2-0.3-0.6-0.9-1.3c-0.6-0.6-1.2-1.3-2-2.1l-22.8-24.3
			v26.8c0,0.9,0.6,1.4,1.9,1.4v1.7h-11.3v-1.7c1.1,0,1.7-0.5,1.7-1.4V301c0-0.9-0.5-1.4-1.7-1.4V298h13.5v1.7
			c-0.5,0-0.6,0.2-0.6,0.5c0,0.3,0.6,1.1,2,2.5l22.1,23.4v-25c0-0.9-0.6-1.4-1.8-1.4V298h11.2v1.7c-1.1,0-1.7,0.5-1.7,1.4v34.4
			C317.6,336.4,318.1,336.8,319.2,336.8z"/>
		<path class="st0" d="M271.7,254v1.7h-13.1v-1.4c0.3,0,0.6-0.1,1-0.3c0.3-0.2,0.5-0.5,0.5-1c0-0.4-0.1-0.7-0.2-1
			c-0.1-0.3-0.3-0.7-0.5-1.2l-2.5-5.2h-19.7l-2.6,5c-0.3,0.5-0.5,0.9-0.6,1.3c-0.2,0.4-0.2,0.7-0.2,1.1c0,0.5,0.1,0.8,0.5,0.9
			c0.3,0.1,0.7,0.2,1.3,0.2v1.7h-12.3V254c0.7-0.1,1.3-0.5,1.8-1.1s0.8-1.1,1.1-1.6l13.7-29.9c0.4-0.9,0.6-1.5,0.9-2.1
			c0.2-0.5,0.3-1,0.3-1.5c0-0.4-0.1-0.6-0.2-0.7c-0.2-0.1-0.3-0.2-0.5-0.3v-1.7h13.9v1.7c-0.2,0.1-0.4,0.2-0.6,0.3
			c-0.2,0.1-0.3,0.3-0.3,0.7c0,0.4,0.1,0.8,0.4,1.3c0.3,0.6,0.6,1.1,0.9,1.8l14.9,31.3c0.3,0.6,0.6,1,1,1.2S271.3,253.9,271.7,254
			L271.7,254z M254.1,238.7l-7.5-15.5l-6.5,15.5H254.1L254.1,238.7z"/>
		<polygon class="st0" points="227.4,76.5 264.1,146 247.1,172.6 246.2,171 262.3,145.9 227.2,79.5 209.2,103.6 209.1,103.4 
			207.4,103.4 		"/>
		<polygon class="st0" points="227.2,79.5 262.3,145.9 246.2,171 245.4,169.4 260.5,145.8 227,82.5 210.1,105.2 209.2,103.6 		"/>
		<polygon class="st1" points="227,82.5 260.5,145.8 245.4,169.4 210.1,105.2 		"/>
		<path class="st0" d="M254.5,332.1v1.1c-0.6,0.4-1.4,0.9-2.6,1.5s-2.7,1.3-4.5,1.9c-1.8,0.6-3.9,1.1-6.3,1.5
			c-2.4,0.4-5.1,0.6-8,0.6c-4,0-7.6-0.4-10.8-1.3c-3.2-0.9-6-2.2-8.2-4c-2.3-1.8-4-4-5.2-6.5s-1.8-5.4-1.8-8.7s0.6-6.1,1.8-8.7
			c1.2-2.5,2.9-4.7,5.2-6.5c2.2-1.8,5-3.2,8.2-4.1c3.2-0.9,6.8-1.4,10.8-1.4c2.4,0,4.5,0.2,6.4,0.6c1.8,0.5,3.4,0.9,4.8,1.4
			s2.5,1,3.4,1.4c0.8,0.4,1.5,0.6,1.9,0.6s0.8,0,1.1-0.1c0.2-0.1,0.6-0.3,0.9-0.6l1.1,0.5l-5.3,10l-1.1-0.6c0.1-0.6,0.2-0.9,0.2-1
			c0-0.5-0.4-1.1-1.2-1.8c-0.8-0.6-1.8-1.2-3.1-1.8s-2.8-1-4.4-1.3c-1.7-0.3-3.3-0.5-4.9-0.5c-2.3,0-4.4,0.3-6.4,0.8
			c-2,0.5-3.8,1.3-5.3,2.5c-1.6,1.1-2.8,2.6-3.7,4.4s-1.4,4-1.4,6.5s0.5,4.7,1.5,6.5c1,1.8,2.3,3.2,3.8,4.2c1.6,1.1,3.3,1.8,5.2,2.4
			c1.9,0.5,3.7,0.7,5.5,0.7c2.6,0,5.1-0.2,7.5-0.5c2.4-0.4,4.5-1.1,6.5-2.1v-5.8h-9.5c-0.7,0-1.3,0.1-1.8,0.4
			c-0.5,0.3-0.8,0.8-0.9,1.5h-1.7v-9.5h1.7c0.1,0.6,0.4,1,0.9,1.2c0.5,0.2,1.1,0.3,1.8,0.3h18v1.7c-0.6,0.3-0.9,0.5-1.1,0.8
			s-0.3,0.8-0.3,1.4v8.8c0,0.5,0.1,1,0.2,1.1C253.5,331.7,253.9,331.9,254.5,332.1L254.5,332.1z"/>
		<polygon class="st0" points="247.1,172.6 247.2,172.8 246.5,173.5 		"/>
		<polygon class="st0" points="246.2,171 247.1,172.6 246.5,173.5 245.6,174.5 244.5,174.5 243.6,172.9 244.9,172.9 245.2,172.5 		
			"/>
		<polygon class="st0" points="246.5,173.5 245.1,175.6 244.5,174.5 245.6,174.5 		"/>
		<polygon class="st0" points="245.4,169.4 246.2,171 245.2,172.5 208.2,105 209.2,103.6 210.1,105.2 		"/>
		<polygon class="st0" points="208.2,105 245.2,172.5 244.9,172.9 243.6,172.9 242.7,171.3 207.3,106.7 207.2,106.7 206.3,105 		"/>
		<polygon class="st0" points="243.6,172.9 244.5,174.5 200.5,174.5 198.7,147.7 179.2,147.7 179.2,146.2 177.6,146.3 179.2,146.1 
			200.2,146.1 202,172.9 		"/>
		<polygon class="st0" points="242.7,171.3 243.6,172.9 202,172.9 200.2,146.1 179.2,146.1 179.2,144.5 201.7,144.5 203.5,171.3 		
			"/>
		<polygon class="st1" points="207.3,106.7 242.7,171.3 203.5,171.3 201.7,144.5 179.2,144.5 179.2,144.5 166.6,144.5 164.9,144.5 
			165.9,171.3 131.2,171.3 131.2,144.3 104.2,144.4 89.8,144.4 89.9,171.3 54.4,171.3 89,107.2 123,107.1 119,120.2 180.2,120.2 
			176.4,106.8 207.2,106.7 		"/>
		<polygon class="st0" points="193.6,6.4 226.5,75.3 207.8,99.8 207.9,99 207.4,97.7 224.6,75.1 192.5,7.7 		"/>
		<polygon class="st0" points="192.5,7.7 224.6,75.1 207.4,97.7 206.7,96 222.8,74.9 191.3,9 		"/>
		<polygon class="st1" points="191.3,9 222.8,74.9 206.7,96 176.8,24.9 176.8,24.8 		"/>
		<polygon class="st0" points="209.1,103.4 209.2,103.6 208.2,105 206.3,105 206.3,104.9 207.4,103.4 		"/>
		<polygon class="st0" points="207.4,97.7 207.9,99 207.8,99.8 206.2,101.8 205.6,101.8 204.9,100.2 206.1,100.2 206.2,99.2 		"/>
		<polygon class="st0" points="206.2,101.8 207.8,99.8 207.5,101.8 		"/>
		<polygon class="st0" points="207.4,103.4 206.3,104.9 206.3,105 175.9,105.2 175.4,103.7 		"/>
		<polygon class="st0" points="207.4,97.7 206.2,99.2 175.6,26.1 175.6,26.1 176.8,24.9 206.7,96 		"/>
		<polygon class="st0" points="206.3,105 207.2,106.7 176.4,106.8 175.9,105.2 		"/>
		<path class="st0" d="M206.7,254v1.7h-12V254c0.4,0,0.6-0.1,0.6-0.5c0-0.2-0.3-0.6-0.9-1.3c-0.6-0.6-1.2-1.3-2-2.1l-22.8-24.3v26.8
			c0,0.9,0.6,1.4,1.9,1.4v1.7h-11.3V254c1.1,0,1.7-0.5,1.7-1.4v-34.4c0-0.9-0.6-1.4-1.7-1.4v-1.7h13.5v1.7c-0.5,0.1-0.6,0.2-0.6,0.5
			c0,0.3,0.6,1.1,2,2.5l22.1,23.4v-24.9c0-0.9-0.6-1.4-1.8-1.4v-1.7h11.2v1.7c-1.1,0-1.7,0.5-1.7,1.4v34.4
			C205,253.5,205.6,254,206.7,254L206.7,254z"/>
		<polygon class="st0" points="175.6,26.1 206.2,99.2 206.1,100.2 204.9,100.2 204.3,98.6 173.9,26.1 		"/>
		<polygon class="st0" points="206.2,101.8 205.8,102.3 205.6,101.8 		"/>
		<polygon class="st0" points="204.9,100.2 205.6,101.8 173.2,102 173.2,100.3 		"/>
		<polygon class="st0" points="204.3,98.6 204.9,100.2 173.2,100.3 173.2,100.3 173.2,98.7 172.7,98.7 163.8,69 137.2,69 126.4,99 
			125.9,99 125.9,100.5 90.3,100.7 128.8,26.1 130.6,26.1 92.9,99.1 124.8,99 136.1,67.3 165,67.3 174.4,98.7 		"/>
		<polygon class="st1" points="173.8,26.1 204.3,98.6 174.4,98.7 165,67.3 136.1,67.3 124.8,99 92.9,99.1 130.6,26.1 		"/>
		<polygon class="st0" points="194.3,5.7 193.6,6.4 193.3,5.7 		"/>
		<polygon class="st0" points="193.3,5.7 193.6,6.4 192.5,7.7 192,6.7 190.7,7.3 188.7,7.2 190,5.8 190.4,5.7 		"/>
		<polygon class="st0" points="192.8,4.6 193.3,5.7 190.4,5.7 		"/>
		<polygon class="st0" points="192,6.7 192.5,7.7 191.3,9 176.8,24.8 176.1,23.2 190.7,7.3 		"/>
		<polygon class="st0" points="190.7,7.3 176.1,23.2 176,22.9 174.2,22.9 188.7,7.2 		"/>
		<path class="st0" d="M190.5,336.8v1.7h-14v-1.7c1,0,1.7-0.1,2-0.3s0.6-0.5,0.6-1.1V301c0-0.5-0.2-0.8-0.6-1.1s-1.1-0.3-2-0.3V298
			h14v1.7c-1.8,0-2.6,0.5-2.6,1.4v34.4C187.9,336.4,188.7,336.8,190.5,336.8z"/>
		<polygon class="st0" points="190.4,5.7 190,5.8 188.7,7.2 144.8,6.7 131,22.9 128.9,22.9 144.1,5.1 		"/>
		<polygon class="st0" points="188.7,7.2 174.2,22.9 174.2,22.9 187.1,8.8 145.6,8.3 133.1,22.9 131,22.9 144.8,6.7 		"/>
		<path class="st1" d="M187.1,8.8l-12.9,14.1h-41.1l12.5-14.6L187.1,8.8L187.1,8.8z M170.7,17.5l3.5-4.2h-23.5l-4.2,4L170.7,17.5
			L170.7,17.5z"/>
		<polygon class="st0" points="176.4,106.8 180.2,120.2 119,120.2 123,107.1 123.5,105.5 125.1,105.5 121.1,118.6 134.7,118.6 
			136.2,118.8 136.3,118.6 178.1,118.6 174.2,105.2 175.9,105.2 		"/>
		<polygon class="st0" points="179.2,147.7 179.5,165 169.2,174.1 169.1,172.1 177.9,164.3 177.6,147.7 		"/>
		<polygon class="st0" points="179.2,146.2 179.2,147.7 177.6,147.7 177.6,146.3 		"/>
		<polygon class="st0" points="179.2,144.5 179.2,146.1 177.6,146.1 166.6,146.1 167.5,172.9 165.9,172.9 165.9,171.3 164.9,144.5 
			166.6,144.5 		"/>
		<polygon class="st0" points="179.2,144.5 179.2,144.5 166.6,144.5 		"/>
		<polygon class="st0" points="179.2,146.1 177.6,146.3 177.6,146.1 		"/>
		<polygon class="st0" points="174.2,105.2 178.1,118.6 136.3,118.6 136.5,117 176,117 173.7,106.8 173,106.8 172.6,105.2 		"/>
		<polygon class="st0" points="177.6,147.7 177.9,164.3 169.1,172.1 168.2,147.7 169.1,170 176.3,163.6 176,147.7 		"/>
		<polygon class="st0" points="177.6,146.3 177.6,147.7 176,147.7 168.2,147.7 169.1,172.1 167.9,173.1 167.5,172.9 166.6,146.1 
			177.6,146.1 		"/>
		<polygon class="st0" points="176.8,24.8 176.8,24.9 175.6,26.1 175.6,26.1 174.9,24.5 176.1,23.2 		"/>
		<polygon class="st0" points="176,147.7 176.3,163.6 169.1,170 168.2,147.7 		"/>
		<polygon class="st0" points="176,22.9 176.1,23.2 174.9,24.5 173.2,24.5 173.1,24.2 174.2,22.9 174.2,22.9 		"/>
		<polygon class="st0" points="173.7,106.8 176,117 173,106.8 		"/>
		<polygon class="st0" points="175.4,103.7 175.9,105.2 174.2,105.2 172.6,105.2 172.1,103.7 		"/>
		<polygon class="st0" points="175.6,26.1 173.9,26.1 173.8,26.1 173.2,24.5 174.9,24.5 		"/>
		<polygon class="st0" points="175.4,103.6 175.4,103.7 172.1,103.7 172.6,105.2 138.2,105.4 138.2,105.3 135,104.8 134.9,105.4 
			126.8,105.5 127.3,103.9 		"/>
		<polygon class="st0" points="174.2,22.9 173.1,24.2 173.2,24.5 129.6,24.5 131,22.9 133.1,22.9 		"/>
		<polygon class="st1" points="174.2,13.3 170.7,17.5 146.5,17.3 150.7,13.3 		"/>
		<polygon class="st0" points="173.2,24.5 173.8,26.1 130.6,26.1 128.8,26.1 129.6,24.5 		"/>
		<polygon class="st0" points="173.2,100.3 173.2,102 172,102 171.6,100.3 		"/>
		<polygon class="st0" points="173.2,100.3 171.6,100.3 171.1,98.7 172.7,98.7 173.2,100.3 		"/>
		<polygon class="st0" points="173.2,100.3 172.7,98.7 173.2,98.7 		"/>
		<polygon class="st0" points="172.6,105.2 173,106.8 137.9,107.1 138.2,105.4 		"/>
		<polygon class="st0" points="163.8,69 172.7,98.7 171.1,98.7 162.6,70.6 144.2,70.6 144.3,70 142.8,69.7 141.2,69.4 141,70.6 
			138.4,70.6 128.2,99 126.4,99 137.2,69 		"/>
		<polygon class="st0" points="171.6,100.3 172,102 127,102.2 127.6,100.5 127.6,100.5 138,100.5 138.8,100.6 138.9,100.5 		"/>
		<polygon class="st0" points="171.6,100.3 138.9,100.5 139.1,98.9 171.1,98.7 		"/>
		<polygon class="st0" points="169.2,174.1 169.2,174.5 168.7,174.5 		"/>
		<polygon class="st0" points="169.1,172.1 169.2,174.1 168.7,174.5 167.1,174.5 166,173.8 165.9,172.9 167.5,172.9 167.9,173.1 		
			"/>
		<polygon class="st0" points="168.7,174.5 168,175.1 167.1,174.5 		"/>
		<polygon class="st0" points="167.1,174.5 128,174.5 128,147.5 104.2,147.6 104.2,146 129.6,145.9 129.6,172.9 165.9,172.9 
			166,173.8 		"/>
		<polygon class="st0" points="165.9,171.3 165.9,172.9 129.6,172.9 129.6,145.9 104.2,146 104.2,144.4 131.2,144.3 131.2,171.3 		
			"/>
		<path class="st0" d="M157,302.1l-4.6,8.6l-1.7-0.5c-0.1-0.4-0.1-0.7-0.2-1.1c-0.1-0.4-0.4-0.7-0.8-1.1c-1.2-1.1-3.1-1.9-5.7-2.7
			s-5.5-1.1-8.6-1.1c-1.2,0-2.4,0.1-3.5,0.2c-1.1,0.2-2.1,0.4-2.9,0.8c-0.9,0.4-1.6,0.9-2,1.4c-0.5,0.6-0.7,1.3-0.7,2.2
			c0,1.4,0.7,2.4,2.3,2.9c1.5,0.6,3.4,1.1,5.7,1.4c2.3,0.4,4.7,0.7,7.4,1c2.6,0.3,5.1,0.9,7.4,1.7c2.3,0.8,4.1,2,5.7,3.5
			c1.5,1.6,2.3,3.7,2.3,6.4s-0.7,4.9-2,6.6c-1.3,1.7-3,3.1-4.9,4c-2,1-4.1,1.7-6.5,1.9c-2.4,0.3-4.6,0.5-6.7,0.5s-4.2-0.2-6.2-0.6
			c-2.1-0.4-4-0.9-5.6-1.4c-1.7-0.5-3.1-1-4.3-1.5c-1.2-0.5-1.9-0.7-2.1-0.7c-0.5,0-0.8,0.2-1.1,0.5l-1.3-0.9l4.2-10.3l1.8,0.5
			c0,0.2-0.1,0.5-0.1,0.8c-0.1,0.3-0.1,0.5-0.1,0.9c0,0.9,0.6,1.8,1.8,2.5c1.2,0.8,2.5,1.4,4.2,1.9c1.6,0.5,3.2,1,4.9,1.2
			c1.6,0.3,2.9,0.5,3.8,0.5c0.8,0,1.9,0,3.2-0.2c1.2-0.1,2.5-0.4,3.7-0.8c1.2-0.4,2.3-0.9,3.1-1.7c0.8-0.7,1.3-1.6,1.3-2.8
			c0-1.3-0.8-2.4-2.3-3c-1.5-0.6-3.4-1.1-5.7-1.4c-2.3-0.3-4.7-0.7-7.4-1c-2.7-0.3-5.1-0.9-7.4-1.7c-0.6-0.2-1.1-0.4-1.7-0.6
			c-1.6-0.7-2.9-1.6-4-2.7c-1.5-1.4-2.3-3.5-2.3-6.1c0-3.9,1.6-7,4.9-9.4c3.2-2.4,7.8-3.5,13.7-3.5c2.9,0,5.3,0.2,7.4,0.7
			c2,0.5,3.8,1,5.2,1.5c1.4,0.5,2.5,1.1,3.4,1.5c0.9,0.5,1.5,0.7,2,0.7s0.8-0.1,1.1-0.2c0.2-0.1,0.6-0.3,0.9-0.5L157,302.1
			L157,302.1z"/>
		<polygon class="st0" points="144.3,70 144.2,70.6 142.6,70.6 142.8,69.7 		"/>
		<polygon class="st0" points="144.2,70.6 139.1,98.9 137.5,98.9 142.6,70.6 		"/>
		<polygon class="st0" points="142.8,69.7 142.6,70.6 141,70.6 141.2,69.4 		"/>
		<polygon class="st0" points="142.6,70.6 137.5,98.9 135.9,98.9 141,70.6 		"/>
		<path class="st0" d="M141.7,254v1.7h-14.1V254c0.8,0,1.2-0.3,1.2-0.8c0-0.6-0.5-1.6-1.4-2.9l-7.3-10.9h-12.8v13.2
			c0,0.5,0.2,0.8,0.6,1.1c0.4,0.2,0.8,0.3,1.2,0.3v1.7H96.9V254c1.1,0,1.7-0.5,1.7-1.4v-34.4c0-0.9-0.6-1.4-1.7-1.4v-1.7h25.4
			c5.4,0,9.7,0.9,12.8,2.7c3,1.8,4.6,4.9,4.6,9.2c0,1.7-0.3,3.1-0.9,4.4c-0.6,1.3-1.4,2.4-2.4,3.4s-2.2,1.7-3.4,2.3
			c-1.2,0.6-2.5,1.1-3.8,1.3l9,13.2c0.5,0.7,1,1.2,1.6,1.5C140.4,253.5,141,253.8,141.7,254L141.7,254z M131.1,226.9
			c0-1.5-0.7-2.8-2.2-3.6c-1.5-0.9-3.7-1.3-6.9-1.3h-14.5v10.7h14.5C128.1,232.6,131.1,230.8,131.1,226.9z"/>
		<polygon class="st0" points="141,70.6 135.9,98.9 128.2,99 138.4,70.6 		"/>
		<polygon class="st0" points="139.1,98.9 138.9,100.5 138,100.5 137.2,100.3 137.5,98.9 		"/>
		<polygon class="st0" points="138.9,100.5 138.8,100.6 138,100.5 		"/>
		<polygon class="st0" points="138.2,105.3 138.2,105.4 134.9,105.4 135,104.8 		"/>
		<polygon class="st0" points="138.2,105.4 137.9,107.1 137,107.1 134.6,117 133.2,117 134.9,105.4 		"/>
		<polygon class="st0" points="138,100.5 127.6,100.5 128.2,99 135.9,98.9 135.6,100.1 137.2,100.3 		"/>
		<polygon class="st0" points="137.9,107.1 136.5,117 134.6,117 137,107.1 		"/>
		<polygon class="st0" points="137.5,98.9 137.2,100.3 135.6,100.1 135.9,98.9 		"/>
		<polygon class="st0" points="136.5,117 136.3,118.6 134.7,118.6 133.1,118.4 133.2,117 134.6,117 		"/>
		<polygon class="st0" points="136.3,118.6 136.2,118.8 134.7,118.6 		"/>
		<polygon class="st0" points="134.9,105.4 133.2,117 123.3,117 126.8,105.5 		"/>
		<polygon class="st0" points="134.7,118.6 121.1,118.6 125.1,105.5 126.8,105.5 123.3,117 133.2,117 133.1,118.4 		"/>
		<polygon class="st0" points="131,22.9 129.6,24.5 128.8,26.1 127,26.1 128.2,23.8 128.2,23.7 128.9,22.9 		"/>
		<polygon class="st0" points="128.9,22.9 128.2,23.7 128.6,22.9 		"/>
		<polygon class="st0" points="128.8,26.1 90.3,100.7 125.9,100.5 125.9,102.2 87.7,102.3 127,26.1 		"/>
		<polygon class="st0" points="128.2,23.8 127,26.1 126.2,26.1 		"/>
		<polygon class="st0" points="128.2,99 127.6,100.5 127.6,100.5 125.9,100.5 126.4,99 		"/>
		<polygon class="st0" points="127.6,100.5 127,102.2 125.9,102.2 125.9,100.5 		"/>
		<polygon class="st0" points="127.3,103.8 127.3,103.9 123.9,103.9 123.5,105.5 88.1,105.7 51.7,172.9 89.9,172.9 89.9,174 
			91.3,174.5 49.1,174.5 87.1,104.1 		"/>
		<polygon class="st0" points="127.3,103.9 126.8,105.5 125.1,105.5 123.5,105.5 123.9,103.9 		"/>
		<polygon class="st0" points="126.4,99 125.9,100.5 125.9,99 		"/>
		<polygon class="st0" points="123.5,105.5 123,107.1 89,107.2 54.4,171.3 89.9,171.3 89.9,172.9 51.7,172.9 88.1,105.7 		"/>
		<polygon class="st0" points="104.2,147.6 104.2,166.5 93.2,174.2 93.2,172.3 102.6,165.7 102.6,147.6 		"/>
		<rect x="102.6" y="146" class="st0" width="1.6" height="1.6"/>
		<polygon class="st0" points="104.2,144.4 104.2,146 102.6,146 91.4,146 91.5,172.9 89.9,172.9 89.9,171.3 89.8,144.4 		"/>
		<polygon class="st0" points="102.6,147.6 102.6,165.7 93.2,172.3 93.1,170.3 101,164.8 101,147.6 		"/>
		<polygon class="st0" points="102.6,146 102.6,147.6 101,147.6 93,147.6 93.1,170.3 93.2,172.3 92,173.1 91.5,172.9 91.4,146 		"/>
		<path class="st0" d="M101.7,334.4v1.7H91.2v-1.7c1.2,0,1.8-1,1.8-3v-23.1h-9.5v14.6c0,1.1,0.1,1.8,0.2,2.4
			c0.1,0.5,0.6,0.7,1.3,0.7v1.7H75v-1.9c0.7,0.2,1.2-0.1,1.3-0.8c0.2-0.7,0.2-1.7,0.2-3v-13.8H65.3v24.3c0,0.7,0.2,1.4,0.6,1.9
			c0.3,0.5,0.8,0.8,1.3,0.8v1.7h-9.9v-1.7c0.5,0,0.9-0.3,1-0.8c0-0.5,0.1-1.1,0.1-1.9v-34.8H60c0,0.3,0.1,0.6,0.3,1
			c0.2,0.3,0.6,0.5,1.1,0.5h35.4c0.5,0,0.9-0.1,1.1-0.5s0.3-0.6,0.3-1h1.7v33.6C100,333.4,100.6,334.4,101.7,334.4L101.7,334.4z"/>
		<polygon class="st0" points="101,147.6 101,164.8 93.1,170.3 93,147.6 		"/>
		<polygon class="st0" points="93.2,174.2 93.2,174.5 92.7,174.5 		"/>
		<polygon class="st0" points="93.2,172.3 93.2,174.2 92.7,174.5 91.3,174.5 89.9,174 89.9,172.9 91.5,172.9 92,173.1 		"/>
		<polygon class="st0" points="92.7,174.5 92.2,174.8 91.3,174.5 		"/>
		<path class="st0" d="M78.5,254v1.7H65.4v-1.4c0.3,0,0.6-0.1,1-0.3c0.3-0.2,0.5-0.5,0.5-1c0-0.4-0.1-0.7-0.2-1
			c-0.1-0.3-0.3-0.7-0.5-1.2l-2.5-5.2H44.1l-2.6,5c-0.3,0.5-0.5,0.9-0.6,1.3c-0.2,0.4-0.2,0.7-0.2,1.1c0,0.5,0.1,0.8,0.5,0.9
			c0.3,0.1,0.7,0.2,1.3,0.2v1.7H30.1V254c0.7-0.1,1.3-0.5,1.8-1.1c0.5-0.6,0.8-1.1,1.1-1.6l13.7-29.9c0.4-0.9,0.6-1.5,0.9-2.1
			c0.2-0.5,0.3-1,0.3-1.5c0-0.4-0.1-0.6-0.2-0.7c-0.2-0.1-0.3-0.2-0.5-0.3v-1.7H61v1.7c-0.2,0.1-0.4,0.2-0.6,0.3
			c-0.2,0.1-0.3,0.3-0.3,0.7c0,0.4,0.1,0.8,0.4,1.3c0.3,0.6,0.5,1.1,0.9,1.8l14.9,31.3c0.3,0.6,0.6,1,1,1.2S78,253.9,78.5,254
			L78.5,254z M60.8,238.7l-7.5-15.5l-6.5,15.5H60.8L60.8,238.7z"/>
		<path class="st0" d="M46.2,318.2c0,2.6-0.4,5.1-1.1,7.5s-1.9,4.6-3.5,6.4c-1.6,1.9-3.7,3.4-6.2,4.6c-2.5,1.1-5.6,1.8-9.2,1.8h-26
			v-1.7c1.4,0,2.1-0.5,2.1-1.4V301c0-0.9-0.7-1.4-2.1-1.4V298h25.6c3.6,0,6.7,0.6,9.3,1.8s4.7,2.7,6.3,4.6c1.6,1.9,2.8,4,3.6,6.4
			C45.8,313.2,46.2,315.7,46.2,318.2L46.2,318.2z M37.4,318c0-3.1-0.4-5.5-1.2-7.2c-0.8-1.8-1.8-3-3.1-4c-1.3-0.9-2.8-1.4-4.5-1.7
			c-1.8-0.2-3.5-0.3-5.4-0.3h-12v26.9h12c1.9,0,3.7-0.1,5.4-0.4c1.7-0.3,3.2-0.9,4.5-1.8s2.3-2.4,3.1-4.1
			C37,323.5,37.4,321.1,37.4,318L37.4,318z"/>
	</g>
</g>
</svg>
